<?xml version="1.0" encoding="UTF-8" standalone="no"?>
<!DOCTYPE svg PUBLIC "-//W3C//DTD SVG 1.1//EN" "http://www.w3.org/Graphics/SVG/1.1/DTD/svg11.dtd">
<svg width="100%" height="100%" viewBox="0 0 1024 1024" version="1.1" xmlns="http://www.w3.org/2000/svg" xmlns:xlink="http://www.w3.org/1999/xlink" xml:space="preserve" xmlns:serif="http://www.serif.com/" style="fill-rule:evenodd;clip-rule:evenodd;stroke-linejoin:round;stroke-miterlimit:2;">
    <g id="Background" transform="matrix(1.390988,0,0,1.390988,26.218023,109.218023)">
        <path d="M110.407,185.507C103.27,173.846 98.704,179.569 88.466,175.572C83.786,173.746 79.34,166.498 79.14,162.528C77.843,136.782 117.858,137.002 112.398,165.475C111.957,167.776 121.405,176.163 124.185,174.045C125.312,173.186 134.589,166.12 138.776,163.997C183.18,141.487 205.374,172.99 209.57,177.433C230.711,199.824 235.913,203.514 231.784,213.616C229.704,218.707 229.4,218.604 184.749,263.745C155.69,293.123 152.699,298.951 137.448,293.628C131.834,291.669 103.065,262.137 98.846,255.277C76.419,218.817 109.103,187.815 110.407,185.507Z" style="fill:rgb(18,119,195);fill-opacity:0.99;"/>
        <path d="M607.909,150.184C613.961,158.804 613.682,174.361 593.547,177.746C586.872,178.868 587.201,179.735 581.829,183.892C575.546,188.754 586.171,188.188 595.712,212.423C605.511,237.312 588.396,256.874 585.847,259.787C583.271,262.731 558.77,290.735 550.569,293.665C536.664,298.634 533.63,292.036 505.664,264.332C458.963,218.069 458.751,216.264 458.079,210.56C456.884,200.405 461.524,198.025 482.034,176.034C489.549,167.976 507.711,144.405 547.557,162.373C556.289,166.311 564.09,173.477 565.364,174.647C570.659,179.511 571.19,175.374 576.401,170.401C582.166,164.898 573.584,162.151 579.199,152.328C584.654,142.786 599.442,139.09 607.909,150.184Z" style="fill:rgb(254,150,0);fill-opacity:1;"/>
        <path d="M117.135,422.052C117.471,421.15 118.134,419.364 113.104,410.72C111.348,407.703 94.837,406.043 98.302,391.444C102.659,373.088 133.497,380.737 122.703,403.595C121.524,406.093 129.606,418.645 133.675,415.763C141.634,410.124 180.041,397.958 204.154,431.755C205.945,434.264 205.81,434.334 224.952,464.197C233.234,477.118 226.759,480.257 172.715,512.834C134.75,535.719 126.923,545.359 111.028,520.8C86.337,482.651 78.458,465.152 102.897,433.839C107.129,428.417 115.888,422.845 117.135,422.052Z" style="fill:rgb(253,145,0);fill-opacity:1;"/>
        <path d="M573.402,382.287C573.754,382.461 573.236,384.084 575.5,383.323C575.978,383.162 582.347,382.855 583.5,383.289C585.617,384.085 585.328,382.43 585.6,382.302C595.95,388.509 597.734,404.872 580.427,408.11C576.146,408.911 571.39,420.292 573.669,422.27C578.206,426.208 597.621,435.223 601.639,463.481C602.294,468.082 604.083,480.666 580.819,517.711C565.765,541.682 559.196,536.081 540.237,524.951C463.606,479.965 457.837,478.568 462.925,469.747C470.072,457.354 484.309,435.279 486.221,432.315C488.506,428.771 502.088,407.713 533.494,408.99C551.268,409.714 557.934,419.53 562.41,414.415C563.411,413.272 568.878,405.591 568.044,403.661C566.637,400.405 560.141,390.014 573.402,382.287Z" style="fill:rgb(243,42,28);fill-opacity:0.99;"/>
        <path d="M337.106,52.037C338.758,55.978 338.157,56.079 336.952,60.214C334.677,57.726 334.442,59.888 331.83,61.93C331.173,61.525 331.054,60.516 330.397,60.111C330.181,59.978 327.061,62.349 323.371,63.339C322.142,63.669 322.583,64.308 321.341,64.654C321.022,64.743 320.787,64.149 320.459,64.197C320.096,64.25 320.582,65.161 316.454,66.427C315.638,66.677 307.903,64.971 306.339,66.008C306.132,66.145 305.921,66.285 304.679,68.637C303.498,70.874 301.694,68.26 300.479,70.484C300.417,70.597 299.737,74.305 302.494,74.324C303.306,74.329 304.573,73.038 305.511,73.471C305.949,73.674 307.262,74.28 311.504,74.168C313.307,74.121 312.445,73.195 312.729,72.945C313.116,72.605 313.803,72.813 314.209,72.495C314.907,71.949 314.564,71.711 315.361,71.188C315.882,70.847 316.252,70.272 316.824,70.029C317.066,69.927 317.338,70.35 317.579,70.248C338.677,68.594 372.381,71.189 368.57,68.444C368.133,68.129 367.761,68.99 362.507,65.491C355.41,60.765 355.529,60.169 355.673,59.454C355.885,58.393 356.269,58.651 356.614,57.579C357.427,55.055 355.819,55.497 355.5,54.663L356.549,53.223C356.782,53.272 359.46,53.833 359.46,53.833C381.219,55.923 410.043,71.716 410.809,98.482C412.211,147.421 409.36,150.137 406.181,153.165C398.187,160.781 392.135,158.922 331.499,158.988C299.243,159.024 284.816,161.94 280.442,143.513C279.58,139.884 279.905,95.552 280.341,93.468C287.373,59.899 319.815,56.704 337.106,52.037Z" style="fill:rgb(130,179,14);fill-opacity:0.99;"/>
        <path d="M383.703,235.296C383.397,235.464 382.579,237.93 380.499,235.501C380.347,235.323 380.288,235.076 380.129,234.904C378.113,232.717 378.619,232.448 376.766,230.198C373.572,226.319 373.593,226.33 373.56,226.324C373.157,226.243 372.91,226.927 372.5,226.954C371.419,227.024 371.604,226.538 370.609,226.23C331.777,214.182 297.98,230.429 292.312,233.153C287.564,235.435 290.158,231.073 290.077,228.528C289.967,225.061 286.535,227.011 285.05,225.5C284.802,225.248 284.521,225.236 282.072,228.762C262.769,197.052 254.067,188.877 247.812,180.315C246.239,178.161 248.012,178.41 250.214,177.034C270.05,164.641 275.763,160.975 277.415,161.732C291.549,168.207 291.858,167.382 307.5,167.469C397.066,167.962 397.38,168.604 404.558,165.639C407.124,164.579 410.159,162.368 410.373,162.264C412.769,161.105 413.301,161.209 440.287,176.836C444.029,179.002 442.423,179.945 441.53,181.52C429.248,197.159 418.929,212.45 417.066,215.211C397.44,244.294 400.367,248.29 394.396,248.837C393.789,245.937 393.715,244.798 393.691,244.442C393.591,242.891 391.915,243.517 390.72,242.402C387.009,238.942 387.466,238.6 383.703,235.296Z" style="fill:rgb(128,175,18);fill-opacity:1;"/>
        <path d="M250.31,203.679C269.13,226.324 268.312,226.868 284.06,251.759C284.879,253.052 285.078,253.941 277.253,259.14C236.103,286.48 226.828,328.92 225.827,339.548C225.374,344.365 222.01,342.871 205.498,343.059C194.611,343.075 184.943,342.917 174.5,343.047C171.691,343.082 142.146,343.451 139.386,342.845C135.505,341.991 140.263,313.744 143.428,305.465C144.483,302.706 151.223,305.451 161.192,299.031C165.269,296.406 238.648,224.097 242.006,216.281C244.094,211.419 244.468,206.128 244.666,205.546C246.89,199.009 249.027,202.678 250.31,203.679Z" style="fill:rgb(16,106,178);fill-opacity:0.99;"/>
        <path d="M514.305,250.695C483.46,219.883 482.644,220.249 479.447,211.518C478.251,208.251 474.86,198.991 502.768,174.808C519.23,160.543 536.075,182.754 537.151,183.844C555.094,202.023 555.358,201.613 573.267,219.726C590.305,236.959 577.228,248.585 562.558,264.553C542.775,286.088 522.827,259.225 514.305,250.695Z" style="fill:rgb(254,254,253);fill-opacity:1;"/>
        <path d="M163.882,173.985C177.337,166.409 180.952,167.036 205.15,192.823C216.238,204.639 207.523,217.608 206.338,219.372C205.897,219.944 205.457,220.515 205.017,221.087C203.544,222.766 160.996,265.632 159.141,267.058C145.209,277.767 136.812,271.079 131.825,268.104C126.311,262.704 121.638,258.584 113.964,250.111C101.709,230.632 112.403,225.127 136.327,201.322C139.589,198.076 160.926,176.526 163.882,173.985Z" style="fill:rgb(254,254,254);fill-opacity:1;"/>
        <path d="M419.919,507.254C418.77,509.334 418.668,509.295 418.679,509.5C418.731,510.534 418.94,510.39 418.914,510.466C418.373,512.048 403.547,517.956 392.343,521.046C317.489,541.692 275.379,508.352 272.397,512.23C271.771,513.044 271.673,512.87 269.5,513.992C267.94,514.797 267.24,513.352 267.224,513.347C269.042,509.946 289.778,471.154 289.985,470.847C294.471,464.207 311.441,490.89 368.578,479.865C381.571,477.357 396.904,468.75 398.264,469.806C398.967,470.351 419.138,505.806 419.919,507.254Z" style="fill:rgb(248,49,23);fill-opacity:1;"/>
        <path d="M396.141,125.454C395.255,129.602 394.995,129.44 393.04,133.163C390.698,135.769 390.831,135.77 388.179,138.026C385.569,139.659 383.158,141.094 380.552,141.705C375.195,142.961 322.452,142.529 311.529,142.128C308.424,141.599 308.484,141.739 305.449,140.604C303.902,139.76 302.355,138.916 300.807,138.072C292.128,129.57 293.117,126.653 293.109,110.501C293.109,110.133 289.269,80.805 308.49,80.108C310.121,80.049 379.593,80.094 380.51,80.111C390.734,80.304 394.339,88.402 394.702,89.416C395.674,92.133 397.794,98.056 396.141,125.454Z" style="fill:rgb(254,254,253);fill-opacity:1;"/>
        <path d="M206.907,465.493C206.346,477.152 203.511,477.132 146.242,512.112C124.524,525.377 115.611,507.628 106.103,487.686C95.808,466.091 111.833,461.127 129.197,450.022C168.013,425.198 169.43,425.174 173.496,425.104C176.68,425.049 188.017,424.853 202.264,452.628C207.381,462.604 206.822,465.107 206.907,465.493Z" style="fill:rgb(254,254,253);fill-opacity:1;"/>
        <path d="M485.056,464.503C485.28,460.182 485.31,460.237 487.227,456.364C502.626,425.242 510.762,418.773 530.232,430.902C580.004,461.908 589.433,460.578 586.802,480.555C586.16,485.432 571.701,508.616 571.176,509.212C560.234,521.618 548.752,513.246 538.332,506.759C502.866,484.681 486.364,480.676 485.056,464.503Z" style="fill:rgb(254,253,253);fill-opacity:1;"/>
        <path d="M210.495,362.007C208.548,362.458 206.446,361.564 204.498,362.015C201.705,362.66 206.97,412.164 234.408,447.572C239.947,454.72 241.57,459.616 254.566,470.316C255.713,467.886 256.557,467.014 256.79,466.773C263.467,459.873 261.658,458.61 267.788,451.196C282.482,463.416 283.627,463.379 282.748,465.609C280.92,470.245 280.279,469.888 251.943,519.75C249.626,523.828 249.107,525.658 245.195,522.96C242.905,521.382 228.858,511.696 219.647,499.395C216.177,494.762 230.528,494.096 237.249,482.366C242.439,473.308 237.914,469.418 218.11,436.744C217.968,436.509 200.776,398.227 154.506,400.627C148.56,400.935 148.285,401.816 146.63,400.34C142.965,397.069 135.944,362.338 140.403,362.074C142.17,361.969 204.759,361.915 210.495,362.007Z" style="fill:rgb(248,125,0);fill-opacity:1;"/>
        <path d="M482.5,362.019C488.025,361.922 529.691,361.192 551.572,362.044C556.921,362.253 547.535,396.413 546.001,399.236C544.386,402.207 529.272,398.732 519.449,401.328C492.596,408.427 486.68,413.401 455.766,463.664C440.857,487.903 472.903,493.188 472.781,497.512C472.698,500.501 457.688,513.277 444.24,523.126C440.326,525.993 439.714,521.627 420.102,487.737C422.443,483.438 422.866,483.339 423.296,483.239C427.391,482.285 442.825,464.192 444.364,462.388C483.622,416.371 490.033,363.819 486.493,362.02C485.307,361.416 483.687,362.622 482.5,362.019Z" style="fill:rgb(232,35,22);fill-opacity:1;"/>
        <path d="M486.74,258.241C486.689,258.372 484.795,259.495 486.59,261.5C488.045,263.125 487.452,263.503 485.657,264.71C478.716,269.375 469.699,283.741 469.725,286.506C469.781,292.399 468.986,292.691 472.088,297.72C476.697,305.19 488.854,337.63 484.5,342.203C484.148,342.573 483.854,342.997 483.502,343.367C468.396,343.429 464.857,344.458 464.258,340.541C456.269,288.325 416.404,260.69 409.798,256.111C406.77,254.011 406.178,253.447 408.106,250.236C420.23,230.036 418.667,228.982 434.19,211.231C435.114,210.175 444.949,196.443 445.843,203.427C446.832,211.15 445.68,217.3 455.722,227.279C475.375,246.809 484.268,255.754 486.74,258.241Z" style="fill:rgb(254,155,0);fill-opacity:1;"/>
        <path d="M419.919,507.254C430.828,526.672 430.747,526.703 431.757,528.354C431.845,528.499 433.582,530.648 431.214,532.042C390.036,556.286 328.702,562.304 278.676,541.041C258.063,532.279 258.334,530.117 258.937,528.675C259.475,527.389 259.551,527.542 267.224,513.347C267.24,513.352 267.94,514.797 269.5,513.992C271.673,512.87 271.771,513.044 272.397,512.23C275.379,508.352 317.489,541.692 392.343,521.046C403.547,517.956 418.373,512.048 418.914,510.466C418.94,510.39 418.731,510.534 418.679,509.5C418.668,509.295 418.77,509.334 419.919,507.254Z" style="fill:rgb(229,34,21);fill-opacity:1;"/>
        <path d="M486.74,258.241C528.018,299.585 529.517,300.114 534.39,301.83C542.211,304.584 546.61,301.619 548.642,307.448C551.457,315.525 555.007,339.923 553.676,342.615C553.056,343.87 533.171,343.062 483.502,343.367C483.854,342.997 484.148,342.573 484.5,342.203C488.854,337.63 476.697,305.19 472.088,297.72C468.986,292.691 469.781,292.399 469.725,286.506C469.699,283.741 478.716,269.375 485.657,264.71C487.452,263.503 488.045,263.125 486.59,261.5C484.795,259.495 486.689,258.372 486.74,258.241Z" style="fill:rgb(247,122,0);fill-opacity:1;"/>
        <path d="M508.929,90.964C498.262,99.967 479.736,91.227 472.727,96.794C467.184,101.195 452.085,116.769 451.784,108.475C451.378,97.275 453.41,95.122 449.543,95.03C427.275,94.501 428.531,87.303 428.406,64.5C428.3,45.253 439.635,48.098 477.498,48.083C496.374,48.076 511.677,45.542 513.804,60.456C513.887,61.041 514.073,76.541 513.619,80.513C513.094,85.112 512.919,86.624 508.929,90.964L444.739,61.949C439.179,67.889 447.18,66.937 479.501,66.889C489.964,66.874 501.033,68.143 497.574,62.437C496.822,61.197 496.449,61.293 476.5,61.35C450.503,61.424 450.507,60.634 444.739,61.949L508.929,90.964L463.504,81.074C490.294,81.092 502.669,81.967 497.368,76.655C496.201,75.487 495.48,75.841 454.499,75.731C453.709,75.728 441.093,74.444 443.434,79.54C444.381,81.601 452.123,80.96 463.504,81.074L508.929,90.964Z" style="fill:rgb(127,179,16);fill-opacity:0.99;"/>
        <path d="M251.477,94.428C245.429,95.736 240.004,93.521 239.915,97.532C239.903,98.088 239.919,98.047 239.965,104.481C239.977,106.105 241.804,113.864 234.779,109.103C225.413,102.754 219.814,95.087 215.512,95.048C188.833,94.808 178.477,98.169 178.989,71.498C179.069,67.349 176.381,50.275 191.456,48.188C192.502,48.043 249.514,48.037 250.535,48.232C263.543,50.721 263.281,59.757 263.165,75.498C263.1,84.244 263.33,90.105 251.477,94.428L243.469,81.039C243.747,80.985 246.293,80.492 246.713,79.634C246.852,79.35 248.066,76.871 245.379,75.915C244.336,75.544 199.612,75.697 196.547,75.899C192.897,76.14 192.813,80.11 196.418,80.9C197.68,81.177 226.768,81.213 243.469,81.039L251.477,94.428L242.507,67.005C242.956,66.978 249.763,66.565 246.207,62.772C244.417,60.862 196.964,60.644 194.765,62.773C193.754,63.75 193.273,66.793 196.462,66.869C201.8,66.996 232.337,66.729 242.507,67.005L251.477,94.428Z" style="fill:rgb(19,105,175);fill-opacity:0.99;"/>
        <path d="M633.744,496.903C626.46,501.394 633.33,479.924 628.474,479.819C626.762,479.782 616.671,481.479 610.781,473.302C608.813,470.569 605.549,442.927 613.793,436.858C619.118,432.937 619.762,434.044 669.502,433.893C672.684,433.884 680.062,432.41 685.284,439.652C686.497,441.334 688.403,443.978 687.34,465.492C686.173,489.117 657.854,474.848 650.739,481.762C642.538,489.731 642.637,489.724 633.744,496.903L624.592,460.982C617.314,467.261 628.62,466.196 667.504,466.199C676.641,466.2 671.901,461.291 670.578,461.096C668.46,460.783 637.085,460.725 624.592,460.982L633.744,496.903L671.394,452.004C672.983,450.5 673.51,450.414 672.673,448.41C672.358,447.654 671.017,447.012 670.439,446.973C668.43,446.839 635.298,446.742 628.502,446.818C619.136,446.923 623.971,451.432 624.434,451.631C626.728,452.616 667.637,452.055 671.394,452.004L633.744,496.903Z" style="fill:rgb(236,40,28);fill-opacity:0.99;"/>
        <path d="M608.003,248.502C608.088,241.345 606.314,230.561 615.718,225.992C620.071,223.877 675.895,224.536 678.476,225.555C689.523,229.916 687.027,243.72 686.999,252.501C686.925,274.959 676.797,268.608 654.43,270.08C650.96,270.308 634.486,289.213 630.39,287.65C629.108,287.161 629.844,286.661 629.792,282.493C629.67,272.759 631.342,270.041 625.504,270.018C606.625,269.943 607.981,260.702 608.003,248.502L647.501,256.079C666.36,256.141 673.794,257.128 671.699,252.396C671.223,251.321 670.896,250.711 626.501,250.904C618.766,250.937 622.964,255.738 624.418,255.906C626.08,256.097 645.654,256.08 647.501,256.079L608.003,248.502L664.5,236.984C623.884,236.928 623.774,237.391 623.086,238.161C618.657,243.114 632.995,242.178 639.494,242.162C670.019,242.087 670.378,242.744 671.472,241.477C675.331,237.008 665.163,236.986 664.5,236.984L608.003,248.502Z" style="fill:rgb(254,145,0);fill-opacity:0.99;"/>
        <path d="M69.521,225.013C78.61,225.909 84.287,229.353 82.27,256.48C80.857,275.482 61.666,266.421 61.693,272.504C61.72,278.645 63.986,291.083 55.739,285.174C48.513,279.996 40.141,270.137 36.535,270.045C20.262,269.631 4.502,273.793 3.919,253.491C3.481,238.2 2.71,225.283 17.513,224.919C21.672,224.817 45.871,224.222 69.521,225.013L64.447,256.033C66.772,254.929 67.519,254.88 66.719,252.41C66.223,250.877 58.25,250.889 57.503,250.89C20.722,250.945 16.57,249.959 18.567,254.466C19.582,256.758 24.018,255.993 24.505,255.991C25.74,255.987 37.579,256.111 64.447,256.033L69.521,225.013L39.496,236.966C21.985,237.102 20.327,236.728 18.941,238.779C18.752,239.058 16.681,242.122 21.501,242.119C65.191,242.093 65.689,241.724 66.245,240.416C67.8,236.76 64.763,236.94 39.496,236.966L69.521,225.013Z" style="fill:rgb(20,103,175);fill-opacity:0.99;"/>
        <path d="M78.939,442.104C80.362,443.792 84.282,448.44 82.376,469.49C80.64,488.656 60.084,479.982 59.593,484.513C59.163,488.486 61.822,500.924 56.596,499.19C48.661,496.556 40.886,483.197 32.49,482.93C12.959,482.309 4.14,486.187 4.015,463.503C3.909,444.224 3.714,438.108 22.497,438.034C25.537,438.022 42.714,437.955 60.498,437.972C72.785,437.984 74.061,437.489 78.939,442.104L66.097,451.878C65.976,451.818 64.59,451.129 64.59,451.129C63.096,450.76 25.644,450.867 22.469,451.045C17.715,451.312 17.068,456.336 22.5,456.321C61.459,456.218 68.867,458.411 66.097,451.878L78.939,442.104L58.513,470.015C60.935,470.025 67.396,470.708 66.476,466.507C65.95,464.107 60.664,465.039 28.501,464.865C27.774,464.862 20.07,464.82 19.43,465.421C18.701,466.105 17.882,469.784 22.483,469.887C37.707,470.227 37.661,469.734 58.513,470.015L78.939,442.104Z" style="fill:rgb(254,147,0);fill-opacity:0.99;"/>
        <path d="M421.599,353.487C425.333,354.823 440.486,354.574 443.032,353.462C443.073,359.972 443.082,359.93 443.077,360.492C442.728,400.612 408.536,453.798 344.498,454.051C344.91,452.25 346.047,447.282 344.515,430.958C345.266,430.891 364.282,431.328 383.719,419.876C413.729,402.195 419.241,373.393 420.189,368.439C421.607,361.029 421.136,361.052 421.599,353.487Z" style="fill:rgb(254,152,0);fill-opacity:1;"/>
        <path d="M268.75,356.582L269.011,357.535C267.677,384.284 293.002,431.556 344.515,430.958C346.047,447.282 344.91,452.25 344.498,454.051C338.509,453.744 338.558,454.104 332.552,453.181C327.436,452.396 295.783,447.535 274.608,424.401C250.387,397.939 248.388,376.842 247.651,357.519C260.286,355.816 261.307,358.522 268.75,356.582Z" style="fill:rgb(245,40,28);fill-opacity:0.99;"/>
        <path d="M482.5,362.019C483.687,362.622 485.307,361.416 486.493,362.02C490.033,363.819 483.622,416.371 444.364,462.388C442.825,464.192 427.391,482.285 423.296,483.239C422.866,483.339 422.443,483.438 420.102,487.737C419.845,487.305 410.154,470.153 409.29,468.624C404.568,460.265 411.099,461.46 420.204,453.172C461.229,415.828 463.943,379.91 466.093,363.389C466.308,361.736 468.14,361.815 482.5,362.019Z" style="fill:rgb(250,57,29);fill-opacity:1;"/>
        <path d="M345.503,259.558C344.956,263.45 344.631,276.776 345.518,280.031C322.397,280.734 306.852,285.439 286.786,306.767C269.475,325.166 268.848,352.345 268.75,356.582C261.307,358.522 260.286,355.816 247.651,357.519C247.77,354.509 247.89,351.499 248.009,348.489C248.579,335.309 260.16,263.021 345.503,259.558Z" style="fill:rgb(25,142,211);fill-opacity:0.99;"/>
        <path d="M345.503,259.558L346.501,259.512C350.834,259.752 376.353,261.167 398.207,275.941C439.233,303.677 441.686,341.776 442.879,348.455C442.707,348.748 443.108,349.179 442.936,349.471C441.392,352.106 439.698,352.084 439.343,352.079C438.398,352.067 438.495,352.09 427.527,352.142C424.138,352.158 423.835,352.79 421.324,350.517C420.281,343.032 418.505,304.649 370.523,284.447C359.712,279.895 348.467,279.995 346.514,280.013L345.518,280.031C344.631,276.776 344.956,263.45 345.503,259.558Z" style="fill:rgb(130,182,17);fill-opacity:0.99;"/>
        <path d="M210.495,362.007C218.786,361.928 224.477,360.825 224.756,364.469C227.482,400.02 241.666,425.954 267.788,451.196C261.658,458.61 263.467,459.873 256.79,466.773C256.557,467.014 255.713,467.886 254.566,470.316C241.57,459.616 239.947,454.72 234.408,447.572C206.97,412.164 201.705,362.66 204.498,362.015C206.446,361.564 208.548,362.458 210.495,362.007Z" style="fill:rgb(254,160,0);fill-opacity:1;"/>
        <path d="M282.072,228.762C284.521,225.236 284.802,225.248 285.05,225.5C286.535,227.011 289.967,225.061 290.077,228.528C290.158,231.073 287.564,235.435 292.312,233.153C297.98,230.429 331.777,214.182 370.609,226.23C371.604,226.538 371.419,227.024 372.5,226.954C372.91,226.927 373.157,226.243 373.56,226.324C373.593,226.33 373.572,226.319 376.766,230.198C378.619,232.448 378.113,232.717 380.129,234.904C380.288,235.076 380.347,235.323 380.499,235.501C382.579,237.93 383.397,235.464 383.703,235.296C387.466,238.6 387.009,238.942 390.72,242.402C391.915,243.517 393.591,242.891 393.691,244.442C393.715,244.798 393.789,245.937 394.396,248.837C342.87,224.646 298.085,247.394 296.343,248.167C292.561,249.698 292.836,247.839 290.707,244.386C286.995,237.141 286.858,237.312 282.888,230.271L282.072,228.762Z" style="fill:rgb(127,175,16);fill-opacity:0.99;"/>
        <path d="M330.2,13.317C345.985,-8.802 376.909,16.113 353.733,35.774C351.064,38.039 351.679,39.033 352.046,50.533C352.146,53.68 353.479,52.648 356.549,53.223L355.5,54.663C355.27,55.063 354.559,55.001 354.329,55.402C354.273,55.498 353.761,58.196 353.752,58.487C353.73,59.184 353.835,59.882 353.799,60.578C353.706,62.387 341.925,65.264 336.952,60.214C338.157,56.079 338.758,55.978 337.106,52.037C337.598,51.161 338.895,48.845 338.272,39.527C337.938,34.545 321.704,30.009 330.2,13.317Z" style="fill:rgb(121,172,15);fill-opacity:0.99;"/>
        <path d="M98.055,285.854C94.496,281.091 94.493,281.163 93.934,280.238C87.998,270.423 92.537,263.341 95.576,264.295C97.496,264.897 122.17,290.256 124.424,292.573C129.84,298.139 113.301,304.97 98.055,285.854Z" style="fill:rgb(18,111,186);fill-opacity:0.99;"/>
        <path d="M506.334,528.989C504.217,528.211 494.791,524.747 481.82,515.059C471.597,507.423 477.084,500.494 484.296,503.896C487.049,505.195 516.099,521.658 518.207,522.963C520.784,524.558 521.219,533.385 506.334,528.989Z" style="fill:rgb(244,42,28);fill-opacity:0.99;"/>
        <path d="M590,286.978C588.569,288.51 574.29,303.798 565.552,296.434C561.89,293.348 574.438,285.243 585.917,271.884C586.612,271.076 598.855,256.827 599.024,269.493C599.112,276.119 591.012,285.772 590,286.978Z" style="fill:rgb(254,148,0);fill-opacity:0.99;"/>
        <path d="M589.539,530.977C577.413,531.178 585.418,524.286 595.232,507.348C599.207,500.486 601.544,492.687 608.258,498.765C613.381,503.402 608.706,512.29 608.164,513.32C598.972,530.794 592.674,530.571 589.539,530.977Z" style="fill:rgb(244,43,32);fill-opacity:0.99;"/>
        <path d="M180.465,530.029C179.678,530.039 171.244,530.139 171.714,525.532C171.847,524.229 173.547,523.244 196.253,510.076C197.818,509.168 214.107,497.04 215.251,507.504C215.677,511.404 198.14,525.404 180.465,530.029Z" style="fill:rgb(254,144,0);fill-opacity:0.99;"/>
        <path d="M220.885,162.031C243.945,180.017 237.992,193.485 234.421,192.835C231.791,192.357 232.24,191.486 210.786,169.224C209.998,168.406 200.17,159.921 211.484,159.052C216.454,158.671 220.256,161.554 220.885,162.031Z" style="fill:rgb(19,116,189);fill-opacity:0.99;"/>
        <path d="M479.498,159.029C489.448,160.033 480.649,166.94 479.81,167.805C456.697,191.668 456.839,194.499 454.527,192.467C448.56,187.222 457.723,160.498 479.498,159.029Z" style="fill:rgb(254,157,0);fill-opacity:0.99;"/>
        <path d="M261.089,105.316C263.908,99.936 270.948,97.854 271.812,100.387C272.162,101.414 272.17,135.308 271.967,137.55C271.433,143.462 251.736,135.863 261.089,105.316Z" style="fill:rgb(130,181,15);fill-opacity:0.99;"/>
        <path d="M422.602,99.131C432.123,103.452 431.901,107.974 432.101,122.505C432.293,136.432 419.79,141.785 419.154,138.627C418.968,137.704 419.055,107.233 419.063,104.503C419.075,100.327 418.506,98.414 422.602,99.131Z" style="fill:rgb(128,182,15);fill-opacity:0.99;"/>
        <path d="M95.244,528.958C83.656,520.807 77.77,505.437 82.749,499.706C89.267,492.205 89.549,501.344 104.837,524.277C110.937,533.426 100.208,531.749 95.244,528.958Z" style="fill:rgb(254,157,0);fill-opacity:0.99;"/>
        <path d="M143.472,177.04C143.824,177.859 144.175,178.678 144.527,179.498C143.809,185.481 127.733,196.857 112.285,216.203L110.837,215.432C110.901,208.83 110.865,208.855 112.602,202.526C114.325,196.248 113.566,195.852 115.778,193.682C118.357,193.676 118.538,193.503 119.609,191.113C122.026,191.635 121.952,192.012 123.512,191.536C129.861,189.6 129.222,183.384 129.135,182.54C129.639,182.267 130.205,182.123 130.709,181.85C130.817,181.792 139.57,177.947 140.536,177.865C142.07,177.735 141.946,177.469 143.472,177.04Z" style="fill:rgb(73,163,220);fill-opacity:1;"/>
        <path d="M548.433,418.762C548.972,418.963 552.573,420.307 555.07,421.544C555.342,422.653 557.507,431.483 565.498,431.294C568.242,431.229 568.381,428.82 570.388,430.674C570.889,431.136 580.627,438.973 582.749,450.491C584.166,458.175 579.219,448.813 575.138,445.944C544.648,424.51 543.155,427.034 538.78,424.006C537.445,423.081 537.249,421.444 538.652,420.907C546.757,417.803 548.295,418.743 548.433,418.762Z" style="fill:rgb(251,94,70);fill-opacity:1;"/>
        <path d="M548.49,227.881C566.832,229.809 557.096,256.712 541.775,248.037C536.205,244.883 530.464,229.023 548.49,227.881Z" style="fill:rgb(254,143,0);fill-opacity:1;"/>
        <path d="M512.482,214.06C492.052,212.794 500.921,185.416 516.598,193.314C524.525,197.306 524.256,211.297 514.577,213.752C513.893,213.926 513.166,213.886 512.482,214.06Z" style="fill:rgb(254,146,0);fill-opacity:1;"/>
        <path d="M557.489,495.092C532.611,492.777 551.082,463.744 564.334,476.669C568.284,480.522 567.77,485.589 567.548,486.512C565.615,494.555 558.924,494.733 557.489,495.092Z" style="fill:rgb(242,40,27);fill-opacity:1;"/>
        <path d="M187.054,459.485C184.202,478.099 158.743,468.578 166.44,453.468C169.202,448.048 185.278,442.177 187.054,459.485Z" style="fill:rgb(254,140,0);fill-opacity:1;"/>
        <path d="M517.462,447.957C538.85,454.597 518.735,479.287 506.77,465.274C502.877,460.715 504.379,448.358 514.512,447.891C515.495,447.845 516.479,448.002 517.462,447.957Z" style="fill:rgb(241,38,27);fill-opacity:1;"/>
        <path d="M134.504,495.049C116.146,490.97 125.052,477.008 128.776,474.982C143.628,466.903 154.252,493.478 134.504,495.049Z" style="fill:rgb(254,144,0);fill-opacity:1;"/>
        <path d="M137.399,417.192C138.624,419.914 139.256,419.979 139.537,420.008C142.737,420.337 151.462,420.005 152.632,420.068C156.753,420.29 150.562,423.828 150.242,424.011C132.67,434.052 132.811,434.267 131.283,435.138C111.773,446.263 108.172,450.282 109.201,445.449C111.408,435.078 118.714,430.7 121.564,428.265C128.289,431.882 128.919,430.506 135.151,426.058C139.234,423.144 133.455,420.335 137.399,417.192Z" style="fill:rgb(254,187,41);fill-opacity:1;"/>
        <path d="M560.965,185.402C565.843,196.582 571.342,190.396 573.379,192.782C580.469,201.091 584.62,220.115 577.276,212.737C548.665,183.995 546.164,180.326 546.641,179.616C547.559,178.249 560.336,181.354 560.726,183.443C560.847,184.09 560.845,184.756 560.965,185.402Z" style="fill:rgb(254,187,45);fill-opacity:1;"/>
        <path d="M134.099,234.271C134.511,233.663 137.416,229.373 141.548,228.903C160.258,226.776 159.033,255.474 139.368,249.817C140.3,247.946 140.506,247.922 140.371,247.804C140.086,247.557 139.572,248.11 139.247,247.92C138.803,247.66 138.717,247.032 138.383,246.641C136.542,244.485 136.175,245.021 136.053,244.818C135.862,244.5 136.34,244.028 136.149,243.71C135.325,241.624 134.98,241.722 135.083,239.479C135.114,238.806 135.248,238.141 135.276,237.469C135.378,235.088 134.507,235.379 134.099,234.271Z" style="fill:rgb(16,115,195);fill-opacity:1;"/>
        <path d="M170.362,195.385C183.619,182.564 199.55,206.796 181.565,213.678C178.499,214.852 173.978,213 173.367,212.75C174.185,211.123 174.862,210.607 173.221,209.941C172.902,209.812 172.482,210.015 172.193,209.827C170.121,208.479 170.318,201.201 170.338,200.436C170.374,199.127 170.136,199.266 169.127,197.296C169.539,196.659 169.951,196.022 170.362,195.385Z" style="fill:rgb(16,116,196);fill-opacity:1;"/>
        <path d="M316.5,101.499C317.912,101.075 321.273,99.844 325.724,102.033C325.6,104.534 326.187,104.304 327.833,106.24C328.943,107.548 328.724,108.27 328.837,108.381C328.962,108.505 328.976,108.311 330.793,107.387C333.066,115.461 330.045,117.762 326.878,120.976C326.377,120.725 326.001,120.263 325.5,120.011C323.715,119.117 322.821,122.756 316.346,119.804C316.346,119.804 314.381,120.803 314.21,120.89C312.742,119.614 306.572,114.827 311.321,105.383C314.801,107.085 314.444,104.904 315.347,104.216C317.809,102.341 318.492,103.372 318.377,103.142C318.004,102.398 316.872,102.243 316.5,101.499Z" style="fill:rgb(116,170,12);fill-opacity:1;"/>
        <path d="M376.912,103.012C383.322,109.569 381.762,114.808 378.613,119.595L377.5,118.739C373.201,121.959 372.801,120.798 367.437,120.701C365.322,120.663 363.906,118.388 362.318,116.59C360.525,114.561 361.713,114.224 361.52,111.501C361.473,110.828 361.069,110.162 361.202,109.5C361.298,109.027 362.016,108.865 362.145,108.4C362.196,108.215 362.035,108.268 360.617,106.563C366.191,97.548 374.106,101.066 376.912,103.012Z" style="fill:rgb(117,169,12);fill-opacity:1;"/>
        <path d="M336.952,60.214C341.925,65.264 353.706,62.387 353.799,60.578C353.835,59.882 353.73,59.184 353.752,58.487C353.761,58.196 354.273,55.498 354.329,55.402C354.559,55.001 355.27,55.063 355.5,54.663C355.819,55.497 357.427,55.055 356.614,57.579C356.269,58.651 355.885,58.393 355.673,59.454C355.529,60.169 355.41,60.765 362.507,65.491C367.761,68.99 368.133,68.129 368.57,68.444C372.381,71.189 338.677,68.594 317.579,70.248C316.232,67.588 318.035,67.99 320.767,66.962C322.178,66.432 327.311,65.16 331.83,61.93C334.442,59.888 334.677,57.726 336.952,60.214Z" style="fill:rgb(190,214,61);fill-opacity:1;"/>
        <path d="M103.754,165.71C90.375,179.885 77.232,154.262 93.459,150.34C100.403,148.661 110.47,156.538 103.754,165.71Z" style="fill:rgb(253,253,254);fill-opacity:1;"/>
        <path d="M354.89,21.489C353.85,38.94 328.092,29.336 336.707,15.614C340.681,9.283 353.013,8.559 354.89,21.489Z" style="fill:rgb(254,254,252);fill-opacity:1;"/>
        <path d="M594.497,150.082C607.522,151.577 605.304,162.086 601.321,166.326C589.59,178.818 575.457,152.101 594.497,150.082Z" style="fill:rgb(254,253,253);fill-opacity:1;"/>
        <path d="M331.83,61.93C327.311,65.16 322.178,66.432 320.767,66.962C318.035,67.99 316.232,67.588 317.579,70.248C317.338,70.35 317.066,69.927 316.824,70.029C316.252,70.272 315.882,70.847 315.361,71.188C314.564,71.711 314.907,71.949 314.209,72.495C313.803,72.813 313.116,72.605 312.729,72.945C312.445,73.195 313.307,74.121 311.504,74.168C307.262,74.28 305.949,73.674 305.511,73.471C304.573,73.038 303.306,74.329 302.494,74.324C299.737,74.305 300.417,70.597 300.479,70.484C301.694,68.26 303.498,70.874 304.679,68.637C305.921,66.285 306.132,66.145 306.339,66.008C307.903,64.971 315.638,66.677 316.454,66.427C320.582,65.161 320.096,64.25 320.459,64.197C320.787,64.149 321.022,64.743 321.341,64.654C322.583,64.308 322.142,63.669 323.371,63.339C327.061,62.349 330.181,59.978 330.397,60.111C331.054,60.516 331.173,61.525 331.83,61.93Z" style="fill:rgb(141,186,17);fill-opacity:1;"/>
        <path d="M360.617,106.563C362.035,108.268 362.196,108.215 362.145,108.4C362.016,108.865 361.298,109.027 361.202,109.5C361.069,110.162 361.473,110.828 361.52,111.501C361.713,114.224 360.525,114.561 362.318,116.59C363.906,118.388 365.322,120.663 367.437,120.701C372.801,120.798 373.201,121.959 377.5,118.739L378.613,119.595C370.577,127.533 354.66,121.73 360.617,106.563Z" style="fill:rgb(75,148,3);fill-opacity:0.99;"/>
        <path d="M113.964,250.111C121.638,258.584 126.311,262.704 131.825,268.104C128.405,269.882 128.532,268.062 125.758,265.325C122.111,261.727 118.432,257.972 117.8,257.327C114.475,253.933 111.808,254.311 113.964,250.111Z" style="fill:rgb(10,87,176);fill-opacity:1;"/>
        <path d="M442.879,348.455C442.93,350.124 442.981,351.793 443.032,353.462C440.486,354.574 425.333,354.823 421.599,353.487L421.324,350.517C423.835,352.79 424.138,352.158 427.527,352.142C438.495,352.09 438.398,352.067 439.343,352.079C439.698,352.084 441.392,352.106 442.936,349.471C443.108,349.179 442.707,348.748 442.879,348.455Z" style="fill:rgb(43,182,16);fill-opacity:0.98;"/>
        <path d="M169.127,197.296C170.136,199.266 170.374,199.127 170.338,200.436C170.318,201.201 170.121,208.479 172.193,209.827C172.482,210.015 172.902,209.812 173.221,209.941C174.862,210.607 174.185,211.123 173.367,212.75C172.299,212.04 164.467,206.83 169.127,197.296Z" style="fill:rgb(4,88,183);fill-opacity:1;"/>
        <path d="M134.099,234.271C134.507,235.379 135.378,235.088 135.276,237.469C135.248,238.141 135.114,238.806 135.083,239.479C134.98,241.722 135.325,241.624 136.149,243.71C136.34,244.028 135.862,244.5 136.053,244.818C136.175,245.021 136.542,244.485 138.383,246.641C138.717,247.032 138.803,247.66 139.247,247.92C139.572,248.11 140.086,247.557 140.371,247.804C140.506,247.922 140.3,247.946 139.368,249.817C138.809,249.469 129.417,244.962 134.099,234.271Z" style="fill:rgb(4,83,179);fill-opacity:1;"/>
        <path d="M314.21,120.89C314.381,120.803 316.346,119.804 316.346,119.804C322.821,122.756 323.715,119.117 325.5,120.011C326.001,120.263 326.377,120.725 326.878,120.976C326.04,121.547 320.621,125.236 314.21,120.89Z" style="fill:rgb(75,146,2);fill-opacity:1;"/>
        <path d="M573.402,382.287C579.343,380.194 580.536,380.502 585.6,382.302C585.328,382.43 585.617,384.085 583.5,383.289C582.347,382.855 575.978,383.162 575.5,383.323C573.236,384.084 573.754,382.461 573.402,382.287Z" style="fill:rgb(249,21,10);fill-opacity:0.99;"/>
        <path d="M548.433,418.762C549.004,418.536 548.929,417.485 549.5,417.259C550.161,416.997 550.911,417.567 551.618,417.5C553.394,417.331 553.361,417.118 553.5,417.18C553.869,417.345 554.114,417.745 554.5,417.866C555.115,418.058 557.991,416.82 556.382,419.439C556.382,419.439 555.175,421.376 555.07,421.544C552.573,420.307 548.972,418.963 548.433,418.762Z" style="fill:rgb(250,61,42);fill-opacity:1;"/>
        <path d="M114.558,188.419C116.242,189.317 117.926,190.215 119.609,191.113C118.538,193.503 118.357,193.676 115.778,193.682C115.774,193.507 115.728,191.5 115.728,191.5C115.32,191.301 114.777,191.787 114.369,191.588C113.89,189.975 113.878,189.992 114.558,188.419Z" style="fill:rgb(54,155,216);fill-opacity:1;"/>
        <path d="M393.04,133.163C393.624,134.254 395.333,134.786 392.37,137.348C390.374,139.074 390.424,139.066 390.204,139.101C388.916,139.309 389.412,137.826 388.179,138.026C390.831,135.77 390.698,135.769 393.04,133.163Z" style="fill:rgb(96,156,18);fill-opacity:0.99;"/>
        <path d="M325.724,102.033C329.996,104.302 329.726,105.505 330.793,107.387C328.976,108.311 328.962,108.505 328.837,108.381C328.724,108.27 328.943,107.548 327.833,106.24C326.187,104.304 325.6,104.534 325.724,102.033Z" style="fill:rgb(75,142,11);fill-opacity:1;"/>
        <path d="M316.5,101.499C316.872,102.243 318.004,102.398 318.377,103.142C318.492,103.372 317.809,102.341 315.347,104.216C314.444,104.904 314.801,107.085 311.321,105.383C313.499,102.922 313.56,103.106 316.5,101.499Z" style="fill:rgb(74,147,10);fill-opacity:1;"/>
        <path d="M184.97,206.452C185.037,206.64 185.818,208.804 185.818,208.804C185.612,209.048 185.112,208.66 184.864,208.86C184.253,209.35 184.484,209.533 183.819,209.862C179.527,211.988 182.397,206.739 182.536,206.673C182.712,206.588 182.716,206.656 184.97,206.452Z" style="fill:rgb(19,123,198);fill-opacity:1;"/>
        <path d="M300.807,138.072C302.355,138.916 303.902,139.76 305.449,140.604C305.306,140.731 303.661,142.188 303.661,142.188C303.231,141.976 303.142,141.323 302.715,141.105C302.415,140.952 302.007,141.346 301.707,141.191C300.054,140.341 300.807,139.912 300.807,138.072Z" style="fill:rgb(100,159,20);fill-opacity:0.99;"/>
        <path d="M236.551,508.685C236.641,506.676 236.734,506.398 238.659,506.206C246.769,505.398 236.798,508.606 236.551,508.685Z" style="fill:rgb(243,118,0);fill-opacity:1;"/>
        <path d="M143.472,177.04C145.344,176.556 145.331,176.478 145.493,176.517C147.72,177.05 145.976,177.789 144.527,179.498C144.175,178.678 143.824,177.859 143.472,177.04Z" style="fill:rgb(55,156,220);fill-opacity:1;"/>
        <path d="M268.249,481.77C272.895,482.935 269.733,484.463 269.5,484.531C269.267,484.598 268.991,484.677 268.249,481.77Z" style="fill:rgb(252,132,0);fill-opacity:1;"/>
        <path d="M114.369,191.588C114.777,191.787 115.32,191.301 115.728,191.5C115.728,191.5 115.774,193.507 115.778,193.682C115.309,192.984 114.839,192.286 114.369,191.588Z" style="fill:rgb(37,143,209);fill-opacity:1;"/>
        <path d="M417.966,227.652C417.854,227.8 416.568,229.5 416.568,229.5C415.337,229.5 416.04,228.571 416.094,228.5C416.769,227.608 417.292,228.542 417.966,227.652Z" style="fill:none;"/>
        <path d="M245.284,106.106C244.537,106.296 245.299,107.061 244.5,107.264C244.416,107.285 244.212,107.337 243.734,106.5C243.34,105.809 245.157,106.087 245.284,106.106Z" style="fill:none;"/>
        <path d="M345.503,33.442C347.181,32.567 347.179,32.402 347.31,32.5C348.107,33.096 345.664,33.421 345.503,33.442Z" style="fill:rgb(117,171,13);fill-opacity:1;"/>
        <path d="M110.837,215.432L112.285,216.203C111.946,216.235 111.839,216.824 111.5,216.855C111.5,216.855 110.89,215.546 110.837,215.432Z" style="fill:rgb(54,153,219);fill-opacity:0.99;"/>
        <path d="M273.486,169.653C272.433,170.143 272.478,170.581 271.516,170.115C270.595,169.669 273.324,169.654 273.486,169.653Z" style="fill:rgb(144,187,22);fill-opacity:0.99;"/>
        <path d="M176.499,167.523C178.254,167.842 178.336,167.723 178.39,167.867C178.89,169.214 177.876,167.773 176.499,167.523Z" style="fill:rgb(18,131,206);fill-opacity:1;"/>
    </g>
</svg>
